<svg width="69" height="62" viewBox="0 0 69 62" fill="none" xmlns="http://www.w3.org/2000/svg">
<path d="M47.5 60.5V54C47.5 50.5522 46.1304 47.2456 43.6924 44.8076C41.2544 42.3696 37.9478 41 34.5 41H15C11.5522 41 8.24558 42.3696 5.80761 44.8076C3.36964 47.2456 2 50.5522 2 54V60.5" stroke="#00182D" stroke-width="3" stroke-linecap="round" stroke-linejoin="round"/>
<path d="M47.5 2.41602C50.2877 3.13872 52.7565 4.76662 54.519 7.04422C56.2814 9.32181 57.2376 12.1202 57.2376 15C57.2376 17.8799 56.2814 20.6782 54.519 22.9558C52.7565 25.2334 50.2877 26.8613 47.5 27.584" stroke="#00182D" stroke-width="3" stroke-linecap="round" stroke-linejoin="round"/>
<path d="M67 60.5V54C66.9979 51.1196 66.0392 48.3215 64.2744 46.045C62.5097 43.7685 60.0389 42.1426 57.25 41.4225" stroke="#00182D" stroke-width="3" stroke-linecap="round" stroke-linejoin="round"/>
<path d="M24.75 28C31.9297 28 37.75 22.1797 37.75 15C37.75 7.8203 31.9297 2 24.75 2C17.5703 2 11.75 7.8203 11.75 15C11.75 22.1797 17.5703 28 24.75 28Z" stroke="#00182D" stroke-width="3" stroke-linecap="round" stroke-linejoin="round"/>
</svg>
