<svg width="25" height="25" viewBox="0 0 25 25" fill="none" xmlns="http://www.w3.org/2000/svg">
<path d="M21.3017 21.3026H17.5972V15.5012C17.5972 14.1176 17.5726 12.3374 15.6704 12.3374C13.7412 12.3374 13.4455 13.8441 13.4455 15.4014V21.3026H9.74228V9.37197H13.2989V11.0019H13.3482C14.0738 9.76252 15.4216 9.02209 16.8568 9.07506C20.6118 9.07506 21.3029 11.5452 21.3029 14.757L21.3017 21.3026ZM5.56226 7.74081C4.37466 7.74081 3.41251 6.77862 3.41251 5.59097C3.41251 4.40333 4.37466 3.44114 5.56226 3.44114C6.74986 3.44114 7.71202 4.40333 7.71202 5.59097C7.71202 6.77862 6.74986 7.74081 5.56226 7.74081ZM7.41389 21.3026H3.70571V9.37197H7.41389V21.3026ZM23.1484 0.00140028H1.84423C0.837727 -0.0096877 0.0123195 0.797271 0 1.80381V23.1962C0.0123195 24.204 0.837727 25.0109 1.84423 24.9999H23.1484C24.1573 25.0122 24.9864 24.2052 25 23.1962V1.80258C24.9852 0.793574 24.1561 -0.0133837 23.1484 0.000168224" fill="white"/>
</svg>
