<svg width="11" height="15" viewBox="0 0 11 15" fill="none" xmlns="http://www.w3.org/2000/svg">
<path d="M10.5 6.25C10.5 9.37063 7.03812 12.6206 5.87562 13.6244C5.76733 13.7058 5.6355 13.7498 5.5 13.7498C5.3645 13.7498 5.23267 13.7058 5.12438 13.6244C3.96188 12.6206 0.5 9.37063 0.5 6.25C0.5 4.92392 1.02678 3.65215 1.96447 2.71447C2.90215 1.77678 4.17392 1.25 5.5 1.25C6.82608 1.25 8.09785 1.77678 9.03553 2.71447C9.97322 3.65215 10.5 4.92392 10.5 6.25Z" stroke="#F4F7ED" stroke-linecap="round" stroke-linejoin="round"/>
<path d="M5.5 8.125C6.53553 8.125 7.375 7.28553 7.375 6.25C7.375 5.21447 6.53553 4.375 5.5 4.375C4.46447 4.375 3.625 5.21447 3.625 6.25C3.625 7.28553 4.46447 8.125 5.5 8.125Z" stroke="#F4F7ED" stroke-linecap="round" stroke-linejoin="round"/>
</svg>
