<svg width="14" height="14" viewBox="0 0 14 14" fill="none" xmlns="http://www.w3.org/2000/svg">
<path d="M8.395 10.105C8.52408 10.1643 8.6695 10.1778 8.80731 10.1434C8.94511 10.109 9.06708 10.0286 9.15313 9.91562L9.375 9.625C9.49143 9.46976 9.64241 9.34375 9.81598 9.25697C9.98955 9.17018 10.1809 9.125 10.375 9.125H12.25C12.5815 9.125 12.8995 9.2567 13.1339 9.49112C13.3683 9.72554 13.5 10.0435 13.5 10.375V12.25C13.5 12.5815 13.3683 12.8995 13.1339 13.1339C12.8995 13.3683 12.5815 13.5 12.25 13.5C9.26631 13.5 6.40483 12.3147 4.29505 10.205C2.18526 8.09517 1 5.23369 1 2.25C1 1.91848 1.1317 1.60054 1.36612 1.36612C1.60054 1.1317 1.91848 1 2.25 1H4.125C4.45652 1 4.77446 1.1317 5.00888 1.36612C5.2433 1.60054 5.375 1.91848 5.375 2.25V4.125C5.375 4.31906 5.32982 4.51045 5.24303 4.68402C5.15625 4.85759 5.03024 5.00857 4.875 5.125L4.5825 5.34438C4.46776 5.43199 4.38689 5.55662 4.35362 5.69709C4.32035 5.83757 4.33674 5.98524 4.4 6.115C5.25418 7.84992 6.65902 9.253 8.395 10.105Z" stroke="#F4F7ED" stroke-linecap="round" stroke-linejoin="round"/>
</svg>
