<svg width="69" height="66" viewBox="0 0 69 66" fill="none" xmlns="http://www.w3.org/2000/svg">
<path d="M67 47.5C67 49.2239 66.3152 50.8772 65.0962 52.0962C63.8772 53.3152 62.2239 54 60.5 54H17.691C15.9672 54.0004 14.3142 54.6854 13.0955 55.9045L5.939 63.061C5.61629 63.3836 5.20516 63.6034 4.75759 63.6924C4.31002 63.7814 3.8461 63.7357 3.4245 63.5611C3.00289 63.3864 2.64253 63.0907 2.38898 62.7113C2.13542 62.3319 2.00006 61.8858 2 61.4295V8.5C2 6.77609 2.68482 5.12279 3.90381 3.90381C5.12279 2.68482 6.77609 2 8.5 2H60.5C62.2239 2 63.8772 2.68482 65.0962 3.90381C66.3152 5.12279 67 6.77609 67 8.5V47.5Z" stroke="#00182D" stroke-width="3" stroke-linecap="round" stroke-linejoin="round"/>
<path d="M28 18.25L18.25 28L28 37.75" stroke="#00182D" stroke-width="3" stroke-linecap="round" stroke-linejoin="round"/>
<path d="M41 37.75L50.75 28L41 18.25" stroke="#00182D" stroke-width="3" stroke-linecap="round" stroke-linejoin="round"/>
</svg>
