<?xml version="1.0" encoding="utf-8"?>
<!-- Generator: Adobe Illustrator 28.2.0, SVG Export Plug-In . SVG Version: 6.00 Build 0)  -->
<svg version="1.1" id="Layer_1" xmlns="http://www.w3.org/2000/svg" xmlns:xlink="http://www.w3.org/1999/xlink" x="0px" y="0px"
	 viewBox="0 0 1080 1080" style="enable-background:new 0 0 1080 1080;" xml:space="preserve">
<style type="text/css">
	.st0{clip-path:url(#SVGID_00000173863952077942602840000017776953659962074760_);}
	.st1{clip-path:url(#SVGID_00000030474550263702106870000008306420056596433083_);}
</style>
<g>
	<defs>
		<rect id="SVGID_1_" x="277.1" y="47.8" width="417.7" height="416.6"/>
	</defs>
	<clipPath id="SVGID_00000017480090939621310540000009464936234693845939_">
		<use xlink:href="#SVGID_1_"  style="overflow:visible;"/>
	</clipPath>
	<g style="clip-path:url(#SVGID_00000017480090939621310540000009464936234693845939_);">
		<path d="M486.2,463.1c114.7,0,207.7-93,207.7-207.6c0-114.7-93-207.7-207.7-207.7c-114.7,0-207.6,93-207.6,207.7
			C278.5,370.1,371.5,463.1,486.2,463.1z M486.2,78.6c97.5,0,176.9,79.4,176.9,176.9c0,97.5-79.4,176.9-176.9,176.9
			c-97.5,0-176.9-79.3-176.9-176.9C309.3,157.9,388.6,78.6,486.2,78.6z"/>
	</g>
</g>
<g>
	<defs>
		<rect id="SVGID_00000117665868153494819820000006926779472311402652_" x="47.8" y="432" width="984.4" height="600.2"/>
	</defs>
	<clipPath id="SVGID_00000134208633264609462170000005687381977400404883_">
		<use xlink:href="#SVGID_00000117665868153494819820000006926779472311402652_"  style="overflow:visible;"/>
	</clipPath>
	<g style="clip-path:url(#SVGID_00000134208633264609462170000005687381977400404883_);">
		<path d="M1019.7,558.1c-1.3-0.2-129.1-19.3-191.7-90.1c-2.7-3.1-6.6-4.8-10.7-4.9c-0.2,0-0.3,0-0.5,0c-3.8,0-7.7,1.7-10.4,4.5
			c-0.3,0.3-12.8,13-33.7,28.4c-38.2-27.8-81.7-49.2-128.1-62.6c-9.8,8.8-20.4,16.7-31.6,23.8c47.3,10.6,92.3,30.2,132.1,57.2
			c-32,19-74,36.6-120.3,36.6c-2.6,0-5.2-0.1-7.8-0.2c-0.2,0-0.5,0-0.7,0c-7.7,0-14.1,6-14.5,13.7c-0.2,3.1-3.5,77.1,19.6,162.2
			C652.5,841,717,919.7,808.1,954.3c1.7,0.6,3.5,1,5.2,1c1.3,0,2.5-0.2,3.7-0.5c1.8-0.5,36-9.7,76.7-42.1v47.1
			c0,23-18.8,41.6-41.8,41.6H120.4c-23.1,0-41.8-18.7-41.8-41.6V784.4c0-91.3,39-176.5,110-240.1c47.8-42.8,107.4-72.8,170.8-87.1
			c-11.2-7.1-21.7-15-31.6-23.8c-156.6,45.3-280,180-280,350.9v175.5c0,39.9,32.5,72.4,72.6,72.4h731.5c40.1,0,72.6-32.4,72.6-72.4
			v-75.3c47.5-50,104.5-144.5,107.7-311.9C1032.3,565.4,1027,559.1,1019.7,558.1z M901.6,864.1c-37.6,39.3-74.9,54.9-87.7,59.5
			c-78.8-32-135-102.8-162.8-205c-16-58.9-18.6-111.7-18.8-137c86.2-3,156.8-57.1,184.1-81.2C874.7,556.1,966,578.9,1001,586
			C995.3,735.6,944.2,819.6,901.6,864.1z"/>
	</g>
</g>
<path d="M735.1,691.1c-6.2-5.8-16-5.5-21.7,0.7c-5.8,6.2-5.5,15.9,0.7,21.7l64.9,60.6c3,2.8,6.7,4.1,10.5,4.1c3.7,0,7.4-1.3,10.3-4
	l119.6-107.7c6.3-5.7,6.8-15.4,1.1-21.7c-5.7-6.3-15.4-6.8-21.7-1.1l-109.2,98.2L735.1,691.1z"/>
<path d="M251.5,612.5c6.1-5.9,6.2-15.7,0.3-21.8c-5.9-6.1-15.7-6.2-21.7-0.3c-48.1,46.9-74.5,108.7-74.5,174.1v128.5
	c0,34.1,12.6,46.8,46.7,46.8h230.2c8.5,0,15.4-6.9,15.4-15.4s-6.9-15.4-15.4-15.4H202.1c-11.5,0-14.1-1.4-14.3-1.4
	c-0.3-0.4-1.6-3-1.6-14.6V764.6C186.2,707.6,209.4,653.6,251.5,612.5z"/>
<path d="M301.6,563.1c0,1-0.1,2-0.3,3s-0.5,2-0.9,2.9c-0.4,0.9-0.9,1.8-1.4,2.7c-0.6,0.8-1.2,1.6-1.9,2.3c-0.7,0.7-1.5,1.4-2.3,1.9
	c-0.8,0.6-1.7,1-2.7,1.4c-0.9,0.4-1.9,0.7-2.9,0.9c-1,0.2-2,0.3-3,0.3c-1,0-2-0.1-3-0.3s-2-0.5-2.9-0.9c-0.9-0.4-1.8-0.9-2.7-1.4
	c-0.8-0.6-1.6-1.2-2.3-1.9c-0.7-0.7-1.4-1.5-1.9-2.3c-0.6-0.8-1-1.7-1.4-2.7c-0.4-0.9-0.7-1.9-0.9-2.9s-0.3-2-0.3-3c0-1,0.1-2,0.3-3
	c0.2-1,0.5-2,0.9-2.9c0.4-0.9,0.9-1.8,1.4-2.7c0.6-0.8,1.2-1.6,1.9-2.3c0.7-0.7,1.5-1.4,2.3-1.9c0.8-0.6,1.7-1,2.7-1.4
	c0.9-0.4,1.9-0.7,2.9-0.9c1-0.2,2-0.3,3-0.3c1,0,2,0.1,3,0.3c1,0.2,2,0.5,2.9,0.9c0.9,0.4,1.8,0.9,2.7,1.4c0.8,0.6,1.6,1.2,2.3,1.9
	c0.7,0.7,1.4,1.5,1.9,2.3c0.6,0.8,1,1.7,1.4,2.7c0.4,0.9,0.7,1.9,0.9,2.9C301.5,561.1,301.6,562.1,301.6,563.1z"/>
</svg>
